<?xml version="1.0" encoding="utf-8"?>
<!-- Generator: Adobe Illustrator 17.0.0, SVG Export Plug-In . SVG Version: 6.00 Build 0)  -->
<!DOCTYPE svg PUBLIC "-//W3C//DTD SVG 1.1//EN" "http://www.w3.org/Graphics/SVG/1.1/DTD/svg11.dtd">
<svg version="1.1" id="Capa_1" xmlns="http://www.w3.org/2000/svg" xmlns:xlink="http://www.w3.org/1999/xlink" x="0px" y="0px"
	 width="25px" height="25px" viewBox="0 0 25 25" enable-background="new 0 0 25 25" xml:space="preserve">
<g>
	<path fill="#0F6343" d="M12.552,24.819c-0.055,0-0.11-0.013-0.161-0.038l-0.421-0.211c-6.76-3.395-10.637-8.373-10.637-13.656
		V3.536c0-0.199,0.161-0.359,0.359-0.359H4.92c1.464,0,2.654-0.905,2.654-2.018V0.541c0-0.199,0.161-0.359,0.359-0.359h9.237
		c0.199,0,0.359,0.161,0.359,0.359v0.618c0,1.113,1.191,2.018,2.655,2.018h3.226c0.199,0,0.359,0.161,0.359,0.359v7.377
		c0,5.283-3.877,10.261-10.637,13.656l-0.42,0.211C12.663,24.806,12.608,24.819,12.552,24.819 M2.053,3.896v7.018
		c0,5.002,3.732,9.745,10.241,13.014l0.259,0.13l0.259-0.13c6.508-3.269,10.24-8.012,10.24-13.014V3.896h-2.867
		c-1.86,0-3.374-1.228-3.374-2.737V0.9H8.293v0.259c0,1.509-1.513,2.737-3.373,2.737H2.053z"/>
	<path fill="#0F6343" d="M12.628,17.587c-3.22,0-5.839-2.62-5.839-5.84c0-3.22,2.62-5.839,5.839-5.839c3.22,0,5.84,2.62,5.84,5.839
		C18.467,14.967,15.847,17.587,12.628,17.587 M12.628,6.627c-2.823,0-5.121,2.297-5.121,5.121c0,2.824,2.297,5.121,5.121,5.121
		c2.824,0,5.121-2.297,5.121-5.121C17.748,8.924,15.451,6.627,12.628,6.627"/>
	<path fill="#0F6343" d="M13.001,14.675h-0.658c-0.711,0-1.289-0.578-1.289-1.289c0-0.198,0.161-0.359,0.359-0.359
		c0.198,0,0.359,0.161,0.359,0.359c0,0.314,0.256,0.57,0.57,0.57h0.658c0.314,0,0.57-0.256,0.57-0.57v-0.658
		c0-0.314-0.256-0.57-0.57-0.57h-0.658c-0.711,0-1.289-0.578-1.289-1.289V10.21c0-0.711,0.578-1.289,1.289-1.289h0.658
		c0.711,0,1.289,0.578,1.289,1.289v0.029c0,0.198-0.161,0.359-0.359,0.359s-0.359-0.161-0.359-0.359V10.21
		c0-0.314-0.256-0.57-0.57-0.57h-0.658c-0.314,0-0.57,0.256-0.57,0.57v0.659c0,0.314,0.256,0.57,0.57,0.57h0.658
		c0.711,0,1.289,0.578,1.289,1.289v0.658C14.289,14.097,13.711,14.675,13.001,14.675"/>
	<path fill="#0F6343" d="M12.671,9.539c-0.198,0-0.359-0.161-0.359-0.359V8.187c0-0.198,0.161-0.359,0.359-0.359
		c0.198,0,0.359,0.161,0.359,0.359v0.992C13.031,9.378,12.87,9.539,12.671,9.539"/>
	<path fill="#0F6343" d="M12.671,15.668c-0.198,0-0.359-0.161-0.359-0.359v-0.993c0-0.198,0.161-0.359,0.359-0.359
		c0.198,0,0.359,0.161,0.359,0.359v0.993C13.031,15.507,12.87,15.668,12.671,15.668"/>
</g>
</svg>
