<?xml version="1.0" encoding="utf-8"?>
<!-- Generator: Adobe Illustrator 17.0.0, SVG Export Plug-In . SVG Version: 6.00 Build 0)  -->
<!DOCTYPE svg PUBLIC "-//W3C//DTD SVG 1.1//EN" "http://www.w3.org/Graphics/SVG/1.1/DTD/svg11.dtd">
<svg version="1.1" id="Capa_1" xmlns="http://www.w3.org/2000/svg" xmlns:xlink="http://www.w3.org/1999/xlink" x="0px" y="0px"
	 width="25px" height="25px" viewBox="0 0 25 25" enable-background="new 0 0 25 25" xml:space="preserve">
<g>
	<path fill="#0F6343" d="M14.269,13.391c-2.407,0-4.366-1.958-4.366-4.366c0-2.407,1.959-4.366,4.366-4.366s4.366,1.958,4.366,4.366
		C18.635,11.432,16.676,13.391,14.269,13.391 M14.269,5.369c-2.016,0-3.656,1.64-3.656,3.656s1.64,3.656,3.656,3.656
		s3.656-1.64,3.656-3.656S16.285,5.369,14.269,5.369"/>
	<path fill="#0F6343" d="M4.24,23.493H0.701c-0.196,0-0.355-0.159-0.355-0.355v-7.659c0-0.196,0.159-0.355,0.355-0.355H4.24
		c0.196,0,0.355,0.159,0.355,0.355v7.659C4.595,23.334,4.436,23.493,4.24,23.493 M1.056,22.783h2.828v-6.949H1.056V22.783z"/>
	<path fill="#0F6343" d="M14.269,20.812c-0.044,0-0.088-0.008-0.13-0.024l-5.572-2.184c-0.154-0.06-0.245-0.218-0.222-0.381
		c0.024-0.163,0.157-0.289,0.321-0.302l2.851-0.243c0.982-0.084,1.804-0.832,1.99-1.747l-2.338,0.199
		c-0.858,0.073-1.75-0.138-2.578-0.611c-0.288-0.164-0.637-0.276-1.009-0.324c-0.177-0.023-0.31-0.173-0.31-0.352V2.463
		c0-0.637-0.57-1.155-1.27-1.155c-0.196,0-0.355-0.159-0.355-0.355c0-0.196,0.159-0.355,0.355-0.355h12.769
		c1.179,0,2.139,0.903,2.139,2.012v16.085c0,0.159-0.106,0.299-0.259,0.342l-6.287,1.762C14.333,20.808,14.301,20.812,14.269,20.812
		 M10.243,18.498l4.045,1.585l5.913-1.657V2.61c0-0.718-0.641-1.302-1.429-1.302H7.556c0.267,0.318,0.426,0.719,0.426,1.155v12.08
		c0.349,0.074,0.677,0.196,0.961,0.359c0.703,0.401,1.451,0.579,2.167,0.52l2.762-0.235c0.1-0.009,0.197,0.025,0.27,0.092
		c0.073,0.067,0.115,0.162,0.115,0.261c0,1.443-1.202,2.718-2.679,2.844L10.243,18.498z"/>
	<path fill="#0F6343" d="M14.269,24.592c-0.027,0-0.054-0.003-0.08-0.009L4.16,22.256c-0.161-0.037-0.275-0.18-0.275-0.346v-5.799
		c0-0.133,0.074-0.255,0.192-0.316c0.322-0.166,0.624-0.368,0.897-0.603c0.651-0.56,1.682-0.835,2.699-0.703
		c0.464,0.059,0.903,0.202,1.271,0.411c0.703,0.401,1.451,0.58,2.167,0.52l2.762-0.235c0.1-0.009,0.197,0.025,0.27,0.092
		c0.073,0.067,0.115,0.162,0.115,0.261c0,1.442-1.202,2.718-2.68,2.844l-1.334,0.114l4.044,1.585l7.442-2.086
		c1.176-0.376,2.463,0.253,2.858,1.409v0c0.105,0.308,0.082,0.637-0.064,0.929c-0.15,0.299-0.411,0.52-0.734,0.624l-9.394,3.61
		C14.355,24.584,14.312,24.592,14.269,24.592 M4.595,21.629l9.648,2.238l9.311-3.577c0.159-0.052,0.272-0.146,0.336-0.274
		c0.06-0.119,0.07-0.255,0.027-0.38c-0.27-0.792-1.16-1.222-1.982-0.959l-7.57,2.122c-0.074,0.021-0.153,0.017-0.225-0.011
		l-5.572-2.184c-0.154-0.06-0.246-0.218-0.222-0.381c0.024-0.163,0.157-0.289,0.321-0.303l2.85-0.242
		c0.983-0.084,1.804-0.832,1.99-1.747l-2.338,0.199c-0.859,0.073-1.75-0.138-2.579-0.611c-0.288-0.164-0.637-0.276-1.009-0.324
		c-0.822-0.106-1.644,0.106-2.146,0.537c-0.26,0.223-0.543,0.422-0.842,0.592V21.629z"/>
	<path fill="#0F6343" d="M7.627,5.369h-3.25c-0.196,0-0.355-0.159-0.355-0.355V2.463c0-0.852,0.606-1.583,1.465-1.799
		c0.059-0.041,0.13-0.065,0.205-0.065h0.31c1.092,0,1.98,0.836,1.98,1.864v2.551C7.982,5.21,7.823,5.369,7.627,5.369 M4.732,4.659
		h2.54V2.463c0-0.637-0.57-1.155-1.27-1.155H5.851C5.828,1.317,5.804,1.324,5.779,1.328C5.173,1.426,4.732,1.903,4.732,2.463V4.659z
		"/>
	<path fill="#0F6343" d="M14.528,11.405H14.01c-0.6,0-1.088-0.488-1.088-1.088c0-0.196,0.159-0.355,0.355-0.355
		c0.196,0,0.355,0.159,0.355,0.355c0,0.208,0.169,0.378,0.378,0.378h0.519c0.208,0,0.378-0.169,0.378-0.378V9.798
		c0-0.208-0.17-0.378-0.378-0.378H14.01c-0.6,0-1.088-0.488-1.088-1.088V7.813c0-0.6,0.488-1.088,1.088-1.088h0.519
		c0.6,0,1.088,0.488,1.088,1.088c0,0.196-0.159,0.366-0.355,0.366c-0.196,0-0.355-0.147-0.355-0.343c0-0.231-0.17-0.401-0.378-0.401
		H14.01c-0.208,0-0.378,0.169-0.378,0.378v0.519c0,0.208,0.169,0.378,0.378,0.378h0.519c0.6,0,1.088,0.488,1.088,1.088v0.519
		C15.616,10.917,15.128,11.405,14.528,11.405"/>
	<path fill="#0F6343" d="M14.269,7.356c-0.196,0-0.355-0.159-0.355-0.355V6.218c0-0.196,0.159-0.355,0.355-0.355
		c0.196,0,0.355,0.159,0.355,0.355v0.783C14.624,7.197,14.465,7.356,14.269,7.356"/>
	<path fill="#0F6343" d="M14.269,12.187c-0.196,0-0.355-0.159-0.355-0.355V11.05c0-0.196,0.159-0.355,0.355-0.355
		c0.196,0,0.355,0.159,0.355,0.355v0.782C14.624,12.028,14.465,12.187,14.269,12.187"/>
</g>
</svg>
