<?xml version="1.0" encoding="utf-8"?>
<!-- Generator: Adobe Illustrator 17.0.0, SVG Export Plug-In . SVG Version: 6.00 Build 0)  -->
<!DOCTYPE svg PUBLIC "-//W3C//DTD SVG 1.1//EN" "http://www.w3.org/Graphics/SVG/1.1/DTD/svg11.dtd">
<svg version="1.1" id="Capa_1" xmlns="http://www.w3.org/2000/svg" xmlns:xlink="http://www.w3.org/1999/xlink" x="0px" y="0px"
	 width="25px" height="25px" viewBox="0 0 25 25" enable-background="new 0 0 25 25" xml:space="preserve">
<path fill="#0F6343" d="M17.285,20.057c0,0.695-0.618,1.28-1.614,1.668c-1.887,0.735-4.799,0.735-6.686,0
	c-0.996-0.388-1.613-0.972-1.614-1.666l0.001-2.436c-1.708,0.501-4.052,0.446-5.62-0.166c-0.91-0.355-1.474-0.888-1.474-1.522
	l0.002-4.522c0.001-0.635,0.563-1.171,1.473-1.526c1.584-0.617,3.96-0.667,5.672-0.15c0.166-0.546,0.732-1.008,1.561-1.33
	c1.887-0.735,4.799-0.735,6.686,0c0.996,0.388,1.612,0.976,1.612,1.67L17.285,20.057L17.285,20.057z M7.372,16.733v-1.389
	c-1.708,0.501-4.052,0.446-5.62-0.165c-0.23-0.09-0.438-0.191-0.62-0.302c0.001,0.433,0.001,0.891-0.004,1.061
	c0,0.248,0.354,0.505,0.929,0.728C3.522,17.237,5.841,17.259,7.372,16.733L7.372,16.733z M7.373,14.454v-1.348
	c-1.708,0.501-4.053,0.446-5.621-0.165c-0.231-0.09-0.44-0.192-0.623-0.304c0,0.341,0.009,0.683,0,1.023
	c0,0.248,0.354,0.505,0.929,0.728C3.522,14.958,5.842,14.98,7.373,14.454L7.373,14.454z M7.373,12.215l0.001-1.601
	c-1.531-0.527-3.851-0.505-5.315,0.066c-0.575,0.224-0.937,0.487-0.931,0.735c0.011,0.377,0.667,0.632,0.931,0.735
	C3.522,12.719,5.842,12.741,7.373,12.215L7.373,12.215z M16.355,13.866c-0.201,0.122-0.431,0.234-0.683,0.332
	c-1.887,0.735-4.799,0.735-6.686,0c-0.251-0.098-0.479-0.208-0.678-0.33c0.001,0.474,0.001,0.976-0.004,1.161
	c0,0.271,0.388,0.553,1.017,0.798c1.667,0.65,4.348,0.65,6.016,0c0.629-0.245,1.017-0.53,1.017-0.801
	C16.355,14.841,16.355,14.34,16.355,13.866L16.355,13.866z M16.354,16.362c-0.201,0.122-0.431,0.234-0.683,0.332
	c-1.887,0.735-4.799,0.735-6.686,0c-0.251-0.098-0.479-0.208-0.678-0.33c0.001,0.48,0.001,0.995-0.004,1.183
	c0,0.271,0.388,0.552,1.017,0.797c1.667,0.65,4.348,0.65,6.016,0c0.629-0.245,1.017-0.53,1.017-0.801
	C16.355,17.355,16.355,16.841,16.354,16.362L16.354,16.362z M16.354,18.878c-0.201,0.123-0.431,0.234-0.683,0.332
	c-1.887,0.735-4.799,0.735-6.686,0c-0.251-0.098-0.479-0.208-0.678-0.33c0.001,0.48,0.001,0.993-0.004,1.181
	c0,0.271,0.388,0.553,1.017,0.798c1.667,0.65,4.348,0.65,6.016,0c0.629-0.245,1.017-0.53,1.017-0.801
	C16.355,19.87,16.355,19.358,16.354,18.878L16.354,18.878z M9.32,10.882c1.667,0.65,4.348,0.65,6.016,0
	c0.262-0.102,1.027-0.406,1.019-0.806c0-0.271-0.389-0.557-1.019-0.802c-1.667-0.65-4.348-0.65-6.016,0
	c-0.63,0.245-1.026,0.533-1.019,0.804C8.313,10.491,9.032,10.769,9.32,10.882L9.32,10.882z M8.303,11.415
	c0,0.373,0.01,0.747,0,1.119c0,0.271,0.388,0.553,1.017,0.797c1.667,0.65,4.348,0.65,6.016,0c0.629-0.245,1.017-0.53,1.017-0.801
	c0.003-0.372,0-0.744,0-1.116l0,0c-0.2,0.123-0.429,0.234-0.682,0.333c-1.887,0.735-4.799,0.735-6.686,0
	C8.732,11.65,8.504,11.538,8.303,11.415L8.303,11.415z"/>
<path fill="#0F6343" d="M18.645,11.54l4.38-2.528l0.687,0.256l-5.581,3.222l-0.007,0.004l-1.42-0.576v1.055l1.077,0.436l0.001-0.001
	l0.003,0.002c0.04,0.016,0.082,0.029,0.126,0.04c0.042,0.01,0.085,0.017,0.127,0.022c0.217,0.021,0.432-0.035,0.608-0.153
	l4.266-2.462l0.801,0.299l-5.581,3.222l-0.007,0.004l-1.42-0.576v1.054l1.077,0.436l0.001-0.001l0.003,0.002
	c0.04,0.016,0.082,0.03,0.126,0.04c0.042,0.01,0.085,0.017,0.127,0.022c0.217,0.021,0.432-0.035,0.608-0.154l4.266-2.462
	l0.801,0.299l-5.581,3.222l-0.007,0.004l-1.42-0.576v1.054l1.077,0.436l0.001-0.001l0.003,0.002c0.04,0.016,0.082,0.03,0.126,0.04
	c0.042,0.01,0.085,0.017,0.127,0.022c0.217,0.021,0.432-0.035,0.608-0.154l5.647-3.259l0.004-0.002l0.001-0.001h-0.001
	c0.063-0.037,0.118-0.077,0.166-0.121c0.05-0.046,0.095-0.098,0.133-0.154c0.193-0.281,0.22-0.66,0.04-0.977l0.002-0.001
	l-0.001-0.001l-0.004-0.004c-0.017-0.029-0.033-0.055-0.05-0.078l0.002-0.001c-0.017-0.024-0.037-0.048-0.058-0.072
	c-0.101-0.115-0.23-0.201-0.372-0.254l-0.149-0.056l0.286-0.165l0.004-0.002h0.001h-0.001c0.063-0.037,0.118-0.077,0.166-0.121
	c0.05-0.046,0.095-0.099,0.133-0.154c0.193-0.281,0.22-0.66,0.04-0.977l0.002-0.001l-0.001-0.001l-0.004-0.004
	c-0.017-0.029-0.033-0.055-0.05-0.078l0.002-0.001c-0.017-0.024-0.037-0.048-0.058-0.072c-0.101-0.115-0.23-0.201-0.372-0.254
	l-0.149-0.056l0.286-0.165l0.004-0.002l0.001-0.001h-0.001c0.063-0.037,0.118-0.077,0.166-0.121c0.05-0.046,0.095-0.098,0.133-0.154
	c0.193-0.281,0.22-0.66,0.04-0.977l0.002-0.001l-0.001-0.001l-0.004-0.004c-0.017-0.029-0.033-0.055-0.05-0.078l0.002-0.001
	c-0.017-0.024-0.037-0.048-0.058-0.072c-0.101-0.115-0.23-0.201-0.372-0.254l-0.034-0.013l0.172-0.099l0.004-0.002h0.001
	L24.298,8.28c0.063-0.037,0.118-0.077,0.166-0.121c0.05-0.046,0.095-0.099,0.133-0.154c0.193-0.281,0.22-0.66,0.04-0.977
	l0.002-0.001l-0.001-0.001l-0.004-0.004c-0.017-0.029-0.033-0.055-0.05-0.078l0.002-0.001c-0.017-0.024-0.037-0.048-0.058-0.072
	c-0.101-0.115-0.23-0.201-0.372-0.254L11.672,1.966l-0.005-0.005V1.961c-0.034-0.012-0.07-0.023-0.11-0.032V1.928
	c-0.035-0.008-0.072-0.014-0.112-0.018c-0.191-0.02-0.379,0.019-0.539,0.106v0.002L5.438,5L5.433,5.002L5.432,5.003l0.001,0.001
	C5.212,5.127,5.06,5.327,4.994,5.551C4.928,5.776,4.947,6.027,5.066,6.25l0.002,0.002l0.001,0.002L5.07,6.254
	c0.017,0.032,0.033,0.058,0.047,0.079c0.018,0.026,0.036,0.05,0.055,0.072C5.27,6.524,5.395,6.612,5.534,6.668L5.533,6.669
	l0.06,0.024L5.438,6.778L5.432,6.78H5.432l0.001,0.001C5.211,6.904,5.06,7.104,4.993,7.328C4.927,7.553,4.946,7.804,5.066,8.027
	l0.002,0.002l0.001,0.002l0.001,0.001C5.087,8.063,5.103,8.09,5.117,8.111c0.018,0.026,0.036,0.05,0.055,0.072
	C5.27,8.301,5.395,8.389,5.533,8.445L5.533,8.446l0.175,0.071L5.438,8.664L5.433,8.666L5.432,8.666l0.001,0.001
	C5.212,8.79,5.06,8.99,4.994,9.214C4.96,9.329,4.949,9.45,4.961,9.571H4.98c0.586,0,1.142,0.054,1.645,0.149L6.001,9.468L6.876,8.99
	l1.203,0.487c0.217-0.243,0.564-0.462,1.01-0.645l-3.087-1.25l0.76-0.415l3.339,1.353c0.262-0.06,0.539-0.11,0.83-0.148V7.924
	l5.512-3.142l2.041,0.761l-4.872,2.794c0.464,0.048,0.899,0.124,1.293,0.223l4.6-2.637l4.207,1.568l-5.582,3.221l-0.007,0.005
	l-1.138-0.461c-0.043,0.158-0.14,0.31-0.282,0.453v0.487l1.077,0.436l0.001-0.001l0.003,0.002c0.04,0.016,0.082,0.029,0.126,0.04
	c0.042,0.01,0.085,0.017,0.127,0.022C18.253,11.715,18.469,11.658,18.645,11.54L18.645,11.54z M6.992,12.809l0.853,0.346v-0.626
	C7.592,12.638,7.305,12.732,6.992,12.809L6.992,12.809z M15.422,4.401L10.087,7.46L6.002,5.804l5.351-2.919L15.422,4.401
	L15.422,4.401z M11.334,2.878l0.002,0.001v0.001L11.33,2.878h0.002H11.334L11.334,2.878L11.334,2.878z M11.336,2.878l0.002,0.001
	l0,0L11.336,2.878L11.336,2.878L11.336,2.878z M11.337,2.879l0.001,0.001l-0.003-0.001H11.337L11.337,2.879L11.337,2.879z
	 M11.372,2.874L11.372,2.874L11.372,2.874L11.372,2.874L11.372,2.874z"/>
</svg>
