<?xml version="1.0" encoding="utf-8"?>
<!-- Generator: Adobe Illustrator 17.0.0, SVG Export Plug-In . SVG Version: 6.00 Build 0)  -->
<!DOCTYPE svg PUBLIC "-//W3C//DTD SVG 1.1//EN" "http://www.w3.org/Graphics/SVG/1.1/DTD/svg11.dtd">
<svg version="1.1" id="Capa_1" xmlns="http://www.w3.org/2000/svg" xmlns:xlink="http://www.w3.org/1999/xlink" x="0px" y="0px"
	 width="25px" height="25px" viewBox="0 0 25 25" enable-background="new 0 0 25 25" xml:space="preserve">
<path fill="#0F6343" d="M4.198,21.637h16.188v2.089H4.198V21.637z M6.286,17.681l4.693-3.909V11.52L6.286,7.61V4.406h11.533v3.221
	l-4.223,3.909v2.219l4.223,3.91v2.928H6.286V17.681z M4.198,1.273h16.188v2.089H4.198V1.273z M3.153,0.229v4.177h2.089V8.1
	l4.693,3.909v1.274l-4.693,3.909v3.401H3.153v4.177h18.276v-4.177h-2.565v-3.384l-4.223-3.91v-1.306l4.223-3.909V4.406h2.565V0.229
	H3.153z"/>
</svg>
