<?xml version="1.0" encoding="utf-8"?>
<!-- Generator: Adobe Illustrator 17.0.0, SVG Export Plug-In . SVG Version: 6.00 Build 0)  -->
<!DOCTYPE svg PUBLIC "-//W3C//DTD SVG 1.1//EN" "http://www.w3.org/Graphics/SVG/1.1/DTD/svg11.dtd">
<svg version="1.1" id="Capa_1" xmlns="http://www.w3.org/2000/svg" xmlns:xlink="http://www.w3.org/1999/xlink" x="0px" y="0px"
	 width="25px" height="25px" viewBox="0 0 25 25" enable-background="new 0 0 25 25" xml:space="preserve">
<g>
	<path fill="none" stroke="#0F6343" stroke-linejoin="round" stroke-miterlimit="10" d="M21.742,7.512v1.995
		c0,0.275-0.223,0.498-0.498,0.498h-5.985c-0.275,0-0.498-0.223-0.498-0.498V3.023c0-0.275,0.223-0.498,0.498-0.498h5.985
		c0.275,0,0.498,0.223,0.498,0.498v0.498"/>
	<path fill="none" stroke="#0F6343" stroke-linejoin="round" stroke-miterlimit="10" d="M9.771,9.507
		c0,0.275-0.223,0.498-0.498,0.498H3.287c-0.275,0-0.498-0.223-0.498-0.498V3.023c0-0.275,0.223-0.498,0.498-0.498h5.985
		c0.275,0,0.498,0.223,0.498,0.498V9.507z"/>
	<path fill="none" stroke="#0F6343" stroke-linejoin="round" stroke-miterlimit="10" d="M9.771,21.478
		c0,0.275-0.223,0.498-0.498,0.498H3.287c-0.275,0-0.498-0.223-0.498-0.498v-6.485c0-0.275,0.223-0.498,0.498-0.498h5.985
		c0.275,0,0.498,0.223,0.498,0.498V21.478z"/>
	
		<line fill="none" stroke="#0F6343" stroke-linejoin="round" stroke-miterlimit="10" x1="12.265" y1="2.026" x2="12.265" y2="22.974"/>
	<line fill="none" stroke="#0F6343" stroke-linejoin="round" stroke-miterlimit="10" x1="1.292" y1="12.5" x2="23.238" y2="12.5"/>
	<polyline fill="none" stroke="#0F6343" stroke-linejoin="round" stroke-miterlimit="10" points="17.752,6.515 19.248,8.011 
		23.238,4.021 	"/>
</g>
</svg>
