<?xml version="1.0" encoding="utf-8"?>
<!-- Generator: Adobe Illustrator 17.0.0, SVG Export Plug-In . SVG Version: 6.00 Build 0)  -->
<!DOCTYPE svg PUBLIC "-//W3C//DTD SVG 1.1//EN" "http://www.w3.org/Graphics/SVG/1.1/DTD/svg11.dtd">
<svg version="1.1" xmlns="http://www.w3.org/2000/svg" xmlns:xlink="http://www.w3.org/1999/xlink" x="0px" y="0px" width="40px"
	 height="80px" viewBox="0 0 40 80" enable-background="new 0 0 40 80" xml:space="preserve">
<g id="Capa_2" display="none">
	<rect x="-3.417" y="-3.333" display="inline" fill="#EF118B" width="58.917" height="86.583"/>
</g>
<g id="Capa_1" display="none">
	<g display="inline">
		<path fill="#868686" d="M19.875,0.25c-3.806,0-6.891,3.085-6.891,6.891c0,3.806,3.085,6.891,6.891,6.891s6.891-3.085,6.891-6.891
			C26.765,3.335,23.68,0.25,19.875,0.25z M19.875,12.656c-3.046,0-5.516-2.469-5.516-5.516s2.469-5.516,5.516-5.516
			s5.516,2.469,5.516,5.516S22.921,12.656,19.875,12.656z"/>
		<g>
			<path fill="#FFFFFF" d="M-0.594-1v81.312h41.188V-1H-0.594z M19.903,0.672c3.564,0,6.456,2.89,6.456,6.456
				c0,3.565-2.892,6.455-6.456,6.455c-3.566,0-6.455-2.89-6.455-6.455C13.448,3.562,16.337,0.672,19.903,0.672z M32.894,44.361
				c-1.782,0-3.234-1.447-3.256-3.235l-2.142-11.516l0.212,5.344l4.696,23.931c0.025,0.129-0.008,0.263-0.092,0.364
				c-0.084,0.101-0.208,0.16-0.339,0.16h-4.264v17.146c0,1.868-1.321,3.277-3.074,3.277c-1.753,0-3.075-1.409-3.075-3.277V59.409
				h-2.635v17.146c0,1.868-1.321,3.277-3.074,3.277c-1.753,0-3.074-1.409-3.074-3.277V59.409H8.589
				c-0.131,0-0.255-0.058-0.338-0.159c-0.083-0.101-0.118-0.234-0.094-0.362l4.52-23.992l0.287-6.149l-2.77,12.386
				c-0.028,1.784-1.513,3.227-3.334,3.227c-1.802,0-3.267-1.47-3.267-3.277c0-0.028,0.002-0.055,0.007-0.082l3.639-19.074
				c0.037-0.276,0.041-0.346,0.042-0.376c0.002-0.076,0.013-0.114,0.032-0.185c0.797-2.978,1.979-5.028,5.16-5.355l14.161-0.024
				c0.039-0.003,0.112,0.006,0.154,0.015c0.023,0.005,0.054,0.012,0.079,0.012l0.121-0.002c1.196,0,2.285,0.495,3.238,1.472
				c1.468,1.505,2.223,3.826,2.257,4.477l3.667,19.039c0.005,0.027,0.008,0.055,0.008,0.083
				C36.156,42.891,34.693,44.361,32.894,44.361z"/>
			<path fill="#868686" d="M32.482,21.963c-0.034-0.651-0.788-2.972-2.257-4.477c-0.953-0.977-2.042-1.472-3.238-1.472l-0.121,0.002
				c-0.025,0-0.056-0.007-0.079-0.012c-0.042-0.009-0.115-0.018-0.154-0.015l-14.161,0.024c-3.18,0.328-4.362,2.378-5.16,5.355
				c-0.019,0.071-0.029,0.109-0.032,0.185c-0.001,0.03-0.005,0.1-0.042,0.376L3.601,41.002c-0.005,0.027-0.007,0.054-0.007,0.082
				c0,1.807,1.465,3.277,3.267,3.277c1.822,0,3.307-1.443,3.334-3.227l2.77-12.386l-0.287,6.149l-4.52,23.992
				c-0.024,0.128,0.01,0.261,0.094,0.362c0.083,0.101,0.207,0.159,0.338,0.159h4.188v17.146c0,1.868,1.321,3.277,3.074,3.277
				c1.752,0,3.074-1.409,3.074-3.277V59.409h2.635v17.146c0,1.868,1.322,3.277,3.075,3.277c1.752,0,3.074-1.409,3.074-3.277V59.409
				h4.264c0.131,0,0.255-0.058,0.339-0.16c0.083-0.101,0.117-0.235,0.092-0.364l-4.696-23.931l-0.212-5.344l2.142,11.516
				c0.022,1.788,1.475,3.235,3.256,3.235c1.799,0,3.262-1.47,3.262-3.277c0-0.028-0.003-0.056-0.008-0.083L32.482,21.963z
				 M14.078,23.742c0.011-0.228-0.155-0.426-0.38-0.456c-0.227-0.029-0.437,0.117-0.487,0.34L9.327,40.989
				c-0.007,0.031-0.01,0.064-0.01,0.096c0,1.3-1.125,2.399-2.456,2.399c-1.304,0-2.367-1.055-2.388-2.359l3.634-19.054
				c0.05-0.366,0.052-0.453,0.056-0.476c0.865-3.23,2.017-4.463,4.357-4.706l14.106-0.021c0.054,0.011,0.143,0.026,0.264,0.026
				c0.001,0,0.002,0,0.003,0l0.094-0.001c3.116,0,4.603,4.495,4.618,5.107c-0.001,0.032,0.002,0.063,0.008,0.094l3.665,19.031
				c-0.021,1.304-1.083,2.359-2.384,2.359c-1.311,0-2.378-1.076-2.378-2.399c0-0.027-0.002-0.054-0.007-0.08l-3.26-17.524
				c-0.042-0.226-0.249-0.379-0.481-0.356c-0.229,0.026-0.399,0.223-0.39,0.454l0.453,11.446c0.001,0.022,0.003,0.045,0.008,0.067
				l4.6,23.44h-4.169c-0.243,0-0.439,0.196-0.439,0.439v17.585c0,1.39-0.924,2.399-2.196,2.399c-1.273,0-2.197-1.009-2.197-2.399
				V58.97c0-0.243-0.196-0.439-0.439-0.439h-3.513c-0.243,0-0.439,0.196-0.439,0.439v17.585c0,1.39-0.924,2.399-2.196,2.399
				c-1.273,0-2.196-1.009-2.196-2.399V58.97c0-0.243-0.196-0.439-0.439-0.439H9.119l4.427-23.502c0.004-0.02,0.006-0.04,0.007-0.061
				"/>
		</g>
	</g>
</g>
<g id="Capa_1_copia">
	<g>
		<path fill="#868686" d="M19.875,0.25c-3.806,0-6.891,3.085-6.891,6.891c0,3.806,3.085,6.891,6.891,6.891s6.891-3.085,6.891-6.891
			C26.765,3.335,23.68,0.25,19.875,0.25z M19.875,12.656c-3.046,0-5.516-2.469-5.516-5.516s2.469-5.516,5.516-5.516
			s5.516,2.469,5.516,5.516S22.921,12.656,19.875,12.656z"/>
		<g>
			<path fill="#FFFFFF" d="M-0.594-1v81.312h41.188V-1H-0.594z M19.903,0.672c3.564,0,6.456,2.89,6.456,6.456
				c0,3.565-2.892,6.455-6.456,6.455c-3.566,0-6.455-2.89-6.455-6.455C13.448,3.562,16.337,0.672,19.903,0.672z M32.894,44.361
				c-1.782,0-3.234-1.447-3.256-3.235l-2.142-11.516l0.212,5.344l0.001,24.454v17.146c0,1.868-1.321,3.277-3.074,3.277
				c-1.753,0-3.075-1.409-3.075-3.277V49.409h-2.635v27.146c0,1.868-1.321,3.277-3.074,3.277c-1.753,0-3.074-1.409-3.074-3.277
				V59.409l-0.099-24.512l0.287-6.149l-2.77,12.386c-0.028,1.784-1.513,3.227-3.334,3.227c-1.802,0-3.267-1.47-3.267-3.277
				c0-0.028,0.002-0.055,0.007-0.082l3.639-19.074c0.037-0.276,0.041-0.346,0.042-0.376c0.002-0.076,0.013-0.114,0.032-0.185
				c0.797-2.978,1.979-5.028,5.16-5.355l14.161-0.024c0.039-0.003,0.112,0.006,0.154,0.015c0.023,0.005,0.054,0.012,0.079,0.012
				l0.121-0.002c1.196,0,2.285,0.495,3.238,1.472c1.468,1.505,2.223,3.826,2.257,4.477l3.667,19.039
				c0.005,0.027,0.008,0.055,0.008,0.083C36.156,42.891,34.693,44.361,32.894,44.361z"/>
			<path fill="#868686" d="M32.482,21.963c-0.034-0.651-0.788-2.972-2.257-4.477c-0.953-0.977-2.042-1.472-3.238-1.472l-0.121,0.002
				c-0.025,0-0.056-0.007-0.079-0.012c-0.042-0.009-0.115-0.018-0.154-0.015l-14.161,0.024c-3.18,0.328-4.362,2.378-5.16,5.355
				c-0.019,0.071-0.029,0.109-0.032,0.185c-0.001,0.03-0.005,0.1-0.042,0.376L3.601,41.002c-0.005,0.027-0.007,0.054-0.007,0.082
				c0,1.807,1.465,3.277,3.267,3.277c1.822,0,3.307-1.443,3.334-3.227l2.77-12.386l-0.287,6.149l0.099,24.512v17.146
				c0,1.868,1.321,3.277,3.074,3.277c1.752,0,3.074-1.409,3.074-3.277V49.409h2.635v27.146c0,1.868,1.322,3.277,3.075,3.277
				c1.752,0,3.074-1.409,3.074-3.277V59.409l-0.001-24.454l-0.212-5.344l2.142,11.516c0.022,1.788,1.475,3.235,3.256,3.235
				c1.799,0,3.262-1.47,3.262-3.277c0-0.028-0.003-0.056-0.008-0.083L32.482,21.963z M14.078,23.742
				c0.011-0.228-0.155-0.426-0.38-0.456c-0.227-0.029-0.437,0.117-0.487,0.34L9.327,40.989c-0.007,0.031-0.01,0.064-0.01,0.096
				c0,1.3-1.125,2.399-2.456,2.399c-1.304,0-2.367-1.055-2.388-2.359l3.634-19.054c0.05-0.366,0.052-0.453,0.056-0.476
				c0.865-3.23,2.017-4.463,4.357-4.706l14.106-0.021c0.054,0.011,0.143,0.026,0.264,0.026c0.001,0,0.002,0,0.003,0l0.094-0.001
				c3.116,0,4.603,4.495,4.618,5.107c-0.001,0.032,0.002,0.063,0.008,0.094l3.665,19.031c-0.021,1.304-1.083,2.359-2.384,2.359
				c-1.311,0-2.378-1.076-2.378-2.399c0-0.027-0.002-0.054-0.007-0.08l-3.26-17.524c-0.042-0.226-0.249-0.379-0.481-0.356
				c-0.229,0.026-0.399,0.223-0.39,0.454l0.453,11.446c0.001,0.022,0.003,0.045,0.008,0.067c0,0-0.008,23.636-0.008,23.879v17.585
				c0,1.39-0.924,2.399-2.196,2.399c-1.273,0-2.197-1.009-2.197-2.399V48.97c0-0.243-0.196-0.439-0.439-0.439h-3.513
				c-0.243,0-0.439,0.196-0.439,0.439v27.585c0,1.39-0.924,2.399-2.196,2.399c-1.273,0-2.196-1.009-2.196-2.399V58.97
				c0-0.243-0.108-23.941-0.108-23.941c0.004-0.02,0.006-0.04,0.007-0.061"/>
		</g>
	</g>
</g>
</svg>
