<?xml version="1.0" encoding="utf-8"?>
<!-- Generator: Adobe Illustrator 17.0.0, SVG Export Plug-In . SVG Version: 6.00 Build 0)  -->
<!DOCTYPE svg PUBLIC "-//W3C//DTD SVG 1.1//EN" "http://www.w3.org/Graphics/SVG/1.1/DTD/svg11.dtd">
<svg version="1.1" id="Capa_1" xmlns="http://www.w3.org/2000/svg" xmlns:xlink="http://www.w3.org/1999/xlink" x="0px" y="0px"
	 width="25px" height="25px" viewBox="0 0 25 25" enable-background="new 0 0 25 25" xml:space="preserve">
<path fill="none" stroke="#0F6343" stroke-width="0.8" stroke-miterlimit="10" d="M16.856,0.7H6.943
	c-0.949,0-1.715,0.769-1.715,1.716v20.129c0,0.947,0.766,1.715,1.715,1.715h9.913c0.947,0,1.714-0.768,1.714-1.715V2.417
	C18.57,1.469,17.803,0.7,16.856,0.7z M9.453,1.743h4.894c0.123,0,0.223,0.184,0.223,0.412c0,0.229-0.1,0.414-0.223,0.414H9.453
	c-0.124,0-0.223-0.185-0.223-0.414C9.23,1.927,9.329,1.743,9.453,1.743z M11.9,22.567c-0.604,0-1.095-0.491-1.095-1.096
	c0-0.604,0.491-1.093,1.095-1.093c0.602,0,1.093,0.49,1.093,1.093C12.993,22.076,12.502,22.567,11.9,22.567z M17.285,18.816H6.514
	V3.597h10.772V18.816z"/>
</svg>
