<?xml version="1.0" encoding="utf-8"?>
<!-- Generator: Adobe Illustrator 17.0.0, SVG Export Plug-In . SVG Version: 6.00 Build 0)  -->
<!DOCTYPE svg PUBLIC "-//W3C//DTD SVG 1.1//EN" "http://www.w3.org/Graphics/SVG/1.1/DTD/svg11.dtd">
<svg version="1.1" id="Capa_1" xmlns="http://www.w3.org/2000/svg" xmlns:xlink="http://www.w3.org/1999/xlink" x="0px" y="0px"
	 width="25px" height="25px" viewBox="0 0 25 25" enable-background="new 0 0 25 25" xml:space="preserve">
<g>
	<g>
		<g>
			<circle fill="none" stroke="#0F6343" stroke-width="0.7" stroke-miterlimit="10" cx="6.727" cy="2.665" r="1.92"/>
		</g>
	</g>
	<g>
		<g>
			<path fill="none" stroke="#0F6343" stroke-width="0.7" stroke-miterlimit="10" d="M4.462,14.725v0.64v7.947
				c0,0.466,0.401,0.844,0.867,0.844s0.867-0.378,0.867-0.844v-8.153h0.867v8.153c0,0.466,0.401,0.844,0.867,0.844
				c0.466,0,0.867-0.378,0.867-0.844v-7.947v-0.759V8.278v0.105l0.636,4.379c0,0.466,0.364,0.844,0.83,0.844
				s0.836-0.378,0.836-0.844L10.175,7.09l0,0c0.004-0.168,0.006-0.113,0.006-0.158c0-0.818-0.669-1.495-1.543-1.495
				c-0.035,0-0.065-0.01-0.065-0.008l0,0L4.696,5.437l0,0C3.855,5.523,3.274,6.174,3.274,6.933c0,0.044-0.02,0.158-0.02,0.158l0,0
				l-0.91,5.672c0,0.466,0.325,0.844,0.791,0.844s0.64-0.378,0.64-0.844l0.687-4.379V8.268L4.462,14.725"/>
		</g>
	</g>
</g>
<g>
	<g>
		<g>
			<circle fill="none" stroke="#0F6343" stroke-width="0.7" stroke-miterlimit="10" cx="18.201" cy="2.987" r="1.882"/>
		</g>
	</g>
	<g>
		<g>
			<path fill="none" stroke="#0F6343" stroke-width="0.7" stroke-miterlimit="10" d="M16.166,14.725v0.715v7.791
				c0,0.457,0.27,0.828,0.727,0.828c0.457,0,1.007-0.37,1.007-0.828v-8.072h0.433v8.072c0,0.457,0.41,0.828,0.867,0.828
				s0.867-0.37,0.867-0.828V15.44v-0.745V8.491v0.103l0.959,4.293c0,0.457,0.435,0.827,0.892,0.827s0.858-0.37,0.858-0.827
				l-1.054-5.562c0.004-0.165-0.433-1.65-1.497-1.62c-0.035,0.001-0.059-0.01-0.059-0.008l0,0l-4.122,0.006l0,0
				c-0.825,0.085-1.156,0.584-1.393,1.467c-0.011,0.042,0.004-0.014-0.019,0.155l0,0l-1.061,5.562c0,0.457,0.368,0.827,0.825,0.827
				s0.802-0.37,0.802-0.827l0.966-4.293V8.481v6.244"/>
		</g>
	</g>
</g>
<polygon fill="none" stroke="#0F6343" stroke-width="0.7" stroke-miterlimit="10" points="16.376,11.46 15.124,18.103 
	21.591,18.103 20.287,11.46 "/>
</svg>
